<svg xmlns="http://www.w3.org/2000/svg" viewBox="0 0 1580.72 394.15"><defs><style>.cls-1{fill:#bad09f;}.cls-2{fill:#898a8d;}</style></defs><g id="Layer_2" data-name="Layer 2"><g id="Layer_1-2" data-name="Layer 1"><path class="cls-1" d="M702.05,31.59s-185.37-3.3-207,4.91-62.07,13-63.42,89.7-2,121.82-2,121.82,163.06,2,178,2,62.16-7.76,82.43-39.29,12-179.15,12-179.15"/><path class="cls-2" d="M294.33,119V44.65q-26.58,0-65.86-.55c-26.24-.41-43.87-.62-53-.62q-73.62,0-97.09,12.7Q52,70.33,46.34,119Zm44.08,44.67H44.13V282.93H0V140.72Q0,74.42,36.28,37.23T139.05,0H338.41Z"/><path class="cls-2" d="M690.64,140.72V44.65H536.83q-53,0-74.63,22t-21.75,75.64v96H594.21c35.37,0,60.27-7.22,74.71-21.93s21.72-39.78,21.72-75.56M734.74,0V142.25q0,66.23-36.29,103.46-36.13,37.23-102.75,37.22H396.35V140.72q0-66.3,36.43-103.49T535.36,0Z"/><path class="cls-2" d="M1135.84,282.93H797.46V140.72q0-66.3,36.42-103.49T936.51,0h199.33V44.65H937.94c-31.39,0-54.49,5.62-69.13,17S845.33,92,842.68,119h293.16v44.68H841.55v74.52h294.29Z"/><path class="cls-2" d="M1189.54,118.34c5.14-32.68,14.63-57.75,27.29-74.79Q1248.9,0,1325.72,0h199.37V44.65H1378V282.93h-44.15V44.65q-45.19,0-67.69,12.65c-13.71,8-23.18,21.23-28.29,39.85a158,158,0,0,0-4.37,21.24Z"/><path class="cls-2" d="M1558.52,1.78A22.22,22.22,0,1,1,1536.28,24a22.22,22.22,0,0,1,22.24-22.21m0,40.5A18.29,18.29,0,1,0,1540.25,24a18.29,18.29,0,0,0,18.27,18.29M1550,11.15h9.77c6.11,0,9,2.79,9,7.63,0,4.43-2.62,6.59-6.07,7l6.61,10.75h-4.91L1558,26.16h-3.4V36.53H1550Zm4.64,11h3.4c2.87,0,6-.17,6-3.58s-3.17-3.59-6-3.52h-3.4Z"/><polygon class="cls-2" points="396.09 394.15 396.09 346.62 407.78 346.62 407.78 364.67 443.95 364.67 443.95 346.62 455.53 346.62 455.53 394.15 443.95 394.15 443.95 374.11 407.78 374.11 407.78 394.15 396.09 394.15"/><path class="cls-2" d="M489.42,346.62v38.64h33.1V346.62h11.7V382.9c0,4.32-.88,7.27-2.61,8.86s-5.05,2.39-9.91,2.39H490.25q-7.25,0-9.8-2.36c-1.7-1.57-2.55-4.54-2.55-8.89V346.62Z"/><polygon class="cls-2" points="556.47 394.15 556.47 346.62 565.75 346.62 589.01 374.83 612.18 346.62 621.51 346.62 621.51 394.15 610.75 394.15 610.75 361.44 589.51 388.44 587.26 388.44 565.75 362.2 565.75 394.15 556.47 394.15"/><path class="cls-2" d="M636.58,394.15l28.21-47.53h11.14l28.65,47.53h-13l-6-10.43H654.14l-6,10.43Zm22.5-19.1h21.79l-11.09-19.82Z"/><polygon class="cls-2" points="717.56 394.15 717.56 346.62 725.52 346.62 765.87 378.18 765.87 346.62 776.35 346.62 776.35 394.15 768.34 394.15 728.1 362.09 728.1 394.15 717.56 394.15"/><polygon class="cls-2" points="869.96 345.01 869.96 366.78 891.22 366.78 891.22 372.38 869.96 372.38 869.96 394.15 864.25 394.15 864.25 372.38 843 372.38 843 366.78 864.25 366.78 864.25 345.01 869.96 345.01"/><polygon class="cls-1" points="957.51 394.15 957.51 346.62 965.47 346.62 1005.81 378.18 1005.81 346.62 1016.29 346.62 1016.29 394.15 1008.28 394.15 968.04 362.09 968.04 394.15 957.51 394.15"/><path class="cls-1" d="M1031.41,394.15l28.22-47.53h11.14l28.65,47.53h-13l-6-10.43H1049l-6,10.43Zm22.51-19.1h21.79l-11.09-19.82Z"/><polygon class="cls-1" points="1134.57 355.12 1134.57 394.15 1122.99 394.15 1122.99 355.12 1100.05 355.12 1100.05 346.62 1157.57 346.62 1157.57 355.12 1134.57 355.12"/><path class="cls-1" d="M1185.21,346.62v38.64h33.1V346.62H1230V382.9c0,4.32-.88,7.27-2.61,8.86s-5,2.39-9.91,2.39H1186q-7.24,0-9.8-2.36c-1.7-1.57-2.55-4.54-2.55-8.89V346.62Z"/><path class="cls-1" d="M1252.25,394.15V346.62h42.82c3.91,0,6.75.72,8.5,2.16s2.64,3.8,2.64,7.06V367c0,3.22-.88,5.55-2.64,7s-4.59,2.15-8.5,2.15h-6.54l22.62,18h-16.63l-19.93-18h-10.92v18Zm37.88-39.35h-26.46V368h26.46c2,0,3.39-.3,4.14-.88a3.53,3.53,0,0,0,1.13-3v-5.49a3.55,3.55,0,0,0-1.13-3q-1.12-.87-4.14-.87"/><polygon class="cls-1" points="1326.43 394.15 1326.43 346.62 1377.42 346.62 1377.42 355.01 1338.12 355.01 1338.12 365.39 1361.01 365.39 1361.01 373.56 1338.12 373.56 1338.12 385.26 1378.03 385.26 1378.03 394.15 1326.43 394.15"/><path class="cls-2" d="M1401.45,350.5h-4.82v-1.74h11.74v1.74h-4.85v14.13h-2.07Z"/><path class="cls-2" d="M1423.51,357.66c-.11-2.21-.26-4.9-.26-6.85h0c-.57,1.83-1.2,3.84-2,6l-2.81,7.69h-1.55l-2.59-7.55c-.75-2.26-1.37-4.29-1.81-6.17h0c-.05,2-.16,4.61-.31,7l-.42,6.81h-2l1.1-15.87h2.62l2.7,7.67c.66,2,1.18,3.7,1.6,5.35h0c.43-1.6,1-3.34,1.7-5.35l2.82-7.67h2.62l1,15.87h-2Z"/></g></g></svg>